<?xml version="1.0" encoding="UTF-8"?>
<svg xmlns="http://www.w3.org/2000/svg" xmlns:xlink="http://www.w3.org/1999/xlink" version="1.1" viewBox="0 0 500 500">
  <!-- Generator: Adobe Illustrator 29.1.0, SVG Export Plug-In . SVG Version: 2.1.0 Build 142)  -->
  <defs>
    <style>
      .st0 {
        fill: url(#radial-gradient);
      }

      .st1 {
        fill: url(#radial-gradient1);
      }

      .st2 {
        fill: url(#radial-gradient6);
      }

      .st3 {
        fill: url(#radial-gradient3);
      }

      .st4 {
        fill: url(#radial-gradient2);
      }

      .st5 {
        fill: url(#radial-gradient5);
      }

      .st6 {
        fill: url(#radial-gradient4);
      }

      .st7 {
        display: none;
      }
    </style>
    <radialGradient id="radial-gradient" cx="394.1" cy="72.5" fx="394.1" fy="72.5" r="25.3" gradientUnits="userSpaceOnUse">
      <stop offset=".2" stop-color="#9e6f7c"/>
      <stop offset=".4" stop-color="#f3eeef"/>
      <stop offset=".5" stop-color="#a0727f"/>
      <stop offset=".7" stop-color="#fff"/>
      <stop offset=".7" stop-color="#fbf9fa"/>
      <stop offset=".8" stop-color="#f0eaec"/>
      <stop offset=".8" stop-color="#dfd1d4"/>
      <stop offset=".8" stop-color="#c7aeb4"/>
      <stop offset=".8" stop-color="#a8808a"/>
      <stop offset=".9" stop-color="#834a58"/>
      <stop offset=".9" stop-color="#804554"/>
    </radialGradient>
    <radialGradient id="radial-gradient1" cx="375.4" cy="88.2" fx="375.4" fy="88.2" r="7" xlink:href="#radial-gradient"/>
    <radialGradient id="radial-gradient2" cx="382.6" cy="90.6" fx="382.6" fy="90.6" r="6.1" xlink:href="#radial-gradient"/>
    <radialGradient id="radial-gradient3" cx="394.1" cy="70.5" fx="394.1" fy="70.5" r="8.2" xlink:href="#radial-gradient"/>
    <radialGradient id="radial-gradient4" cx="459.4" cy="85.2" fx="459.4" fy="85.2" r="2.3" xlink:href="#radial-gradient"/>
    <radialGradient id="radial-gradient5" cx="437.9" cy="75.2" fx="437.9" fy="75.2" r="29" xlink:href="#radial-gradient"/>
    <radialGradient id="radial-gradient6" cx="465.5" cy="84" fx="465.5" fy="84" r="4.9" xlink:href="#radial-gradient"/>
  </defs>
  <g id="Sketch_S">
    <path class="st0" d="M408.5,53.4s-1.2-6.5-5-7.3c0,0-2.7-1.1-9.9-.7,0,0-5.5.4-9,4.2,0,0-3.6,5.3-6.3,9.9,0,0-1.7,1.7-3.1-.1,0,0-1.7-1.5-1.9-2.7,0,0-4.1,3.6-1.6,5.2,0,0,.8,1.4,2.1.8h1.9c0-.1-.9,0-1.8,1.9,0,0-2,2.4-.2,5.7s5.8,3.2,9.4,7.8c0,0-8.7-15.4-4.7-15.1,0,0,.4-.3,1.5.5,0,0-1.5.7-1.1,2h1.7c0,0-.9,3,.4,3.6l.6,1.2.6-1.6s.7,7,7.3,8.6c0,0,1.9-.5,2.5,2.7l-2.3.3.8.5.4.4h1.7l.8.3v.4c0,0,0,1.1,0,1.1v.6c-.1,0-.2.6-1.4,1.7,0,0-7-4.7-12.2-4.4l-.3.5-1.4.2s0,.7-1.3,1.5c0,0,1.9.2,3.3,1.4,0,0,1.1.5,3.6,3.3,0,0,4.2,2.8,8.3-.4,0,0,2.1-1.5,3-3.7,0,0,.8-2.6-2.9-6.4,0,0-4-1.3-6.2-3.3,0,0-.4-.6-.4-1.4,0,0,.5,1.3,2.8,2.2,0,0,1.7,1,4.3,1.6l1.6.3h8s.8.1.8.1c0,0,1.2.2,2.3,1.3,0,0,1.2.7,1.6,1.6,0,0-.1,1.3-2.3,3.6,0,0,2.8-.2,3,1.2,0,0-.5,4.3-8.2,4.3,0,0-2.7.8-8.5.9,0,0-4,.8-4.9,5.2,0,0,.5,4.3,5,5.1,0,0,4.5-.9,4-5,0,0-1.6-2.4-3.7-.5,0,0-.2.6-.1,1.6,0,0,0,.2,0,.4,0,.2-.3.2-.6-.2,0,0,0-.3-1.6-.8,0,0-.5-.3-1.4-.5,0,0,.3,1.1,1.1,2,0,0,.5,1.3,2.1.9,0,0,.4,0,.7-1.2v-.2s.6.2,1.6-.8h.5c0-.1-1.4,3.3-2.5,2.9,0,0-2.9,0-3.9-2.9,0,0-.9-2.1,1.6-3.9,0,0,1.1-1.2,2.5-.8,0,0,0,.9-.6,1.9,0,0,1-1.1,2.7-.7,0,0,.6.5,1.5,1,.9.4,6.4,1.6,10.3-1.4,0,0,1.2-1,2-2.2l.4-1.3s1.5,4.3,5.3,3.9c.4,0,1-.2,1.7-.6,1.4-.7,3.3-2.5,2.9-4.3-.2-1.2-1.3-1.8-1.8-2.2-1.3-.8-2.6-.9-3.1-.8h-.3c0-.1,4.3,2.1,2.1,6.3l-.5.6s.5-2.6-.6-5c0,0,.4,3.1-2.7,3.3,0,0,.6,0,1.1-.6v-1.2s-1.7,1.5-2.9-.5c0,0,3.5,1.5,2.8-6.2l-.2-.9s-.3,2.9-1.3,5.2l-.5.4c-.2-.4-.7-1.5-.5-2.9,0-.8.4-1.5.6-1.8,0,0-2.1-2.8-4.6-4.7,0,0,2.3.3,5.7,3.7,0,0-.7-2.8-4.1-6,0,0,2.5.2,5,4.1,0,0,.8-3.9-4.3-6.3,0,0,4.6-5.5,0-9.1,0,0-2.8-1.6-5.9.4,0,0-1.3,2.9-3.6.5,0,0-.9,2.2,3.4,3.3,0,0,.6-1.4,1.7-.4,0,0,.6,2.4,2.5.3,0,0,4,.6-.2,5.3,0,0-1.3,2.6-3.6,2.4,0,0-.6-3.7-3.1,0,0,0-.9,1.6-4.3,1.3,0,0-.9,0-1.5-.9,0,0,4.3-.3,2.9-3.8,0,0-.5,2.5-4.4,2.9,0,0-3,.7-3.6-1.5,0,0,1.7.6,3.6-1.8,0,0,0-1.1-1.4-1.7,0,0,.2,3.7-2.9,2.7,0,0-2.6-.3-3.6-6,0,0,3.7,3.8,7.8-.3,0,0,1-.4.8-4.8v-4.6c-.1,0-3,1.4-4.1,6,0,0-.3,2.6.5,3.5,0,0,.9.7-1.5.8,0,0-2.1,0-2.7-.9,0,0,.4-.4.8-1.4,0,0-.6.2-1.6,0,0,0-.7-1.2,0-1.4,0,0,.5-.7,1.3-1,0,0-.9-.4-.7-1.5,0,0-1.3-1.3,0-5.1,0,0,.4-3.8,3.8-5.5,0,0,.7-1.9,5-2.2,1.3-.2,3.9-.7,5.4-.4.4,0,.9.2,1.8.4,0,0,.3,0,.7.1,0,0,.4,0,.8.2.1,0,.2,0,.3,0,.1,0,.3,0,.3.1.6.3,1.5.7,2.6,1.2.3.1.8.4.9.5.8.4,2,1.4,3,4Z"/>
    <path class="st1" d="M377.6,83.5c.4,4.7.8,9.4,1.2,14.1h-3.6c.9-.7,1.4-1.5,1.7-2.1,1.7-3.5-.2-8.5-4.4-12.8-.7-2.9-.8-3.6-.6-3.7.2,0,.5,1.8,1.9,2.4,1.7.7,3.9-1,4.1-.6,0,.1-.2.5-.8,1.2-.4.6-.6.7-.7.8-.5.2-.9,0-1.1,0,0,0,.1.1.2.2.4.3.8,0,1.3.2.2,0,.5.2.8.5Z"/>
    <path class="st4" d="M377.6,83.5c.4,4.7.8,9.4,1.2,14.1,2.6-.6,4.6-.4,5.9-.1.7.2,1.9.5,2,.2.1-.2-.4-.7-.9-1-.1-.1-.3-.3-.4-.5-.4-.7-.4-1.5-.3-1.7.2-2,2.7-3.6,2.3-4.8-.3-.9-2.2-.2-4.3-1.6-1.3-.9-1.3-1.6-2.9-3-1-.8-2-1.3-2.6-1.6Z"/>
    <path class="st3" d="M383.7,65.9l.6.5s.3.3,1.3.6c0,0,1.4.9,3.8-.2,0,0,2-1.3,4.8,0,0,0,3.9,2.5,9.7,4.2l.5.2h.3c0,.1-1,2.2-3.1,2.5,0,0-.3-3.2-2.7-.9,0,0-1.2,2.1-2.9,2.3,0,0-2.1.5-3.1-.6,0,0,.6,0,1.6-.5,0,0,1.3-.6,1.4-1.8,0,0,.1-1.3-.6-1.9,0,0,.1,0,0,.3,0,0-.5,2.2-3.7,2.7,0,0-2.9.9-3.9-1.2,0,0,.2,0,.3,0,1.1,0,2-.6,2.1-.7,0,0,.4-.4,1-1,.1-.1.2-.2.3-.3,0,0,0-.2,0-.4-.1-.4-.4-.7-.4-.7,0,0-.3-.4-1.2-.7,0,0,0,3.2-2,2.9,0,0-2.3,0-3.3-3,0,0-.6-1.6-.7-2.2l-.2-.6v.2Z"/>
  </g>
  <g id="Sketch_D">
    <g>
      <path class="st6" d="M457.9,83.7s1.1.2,1.4-1.5c0,0-.4,2.8,1.3,4.5,0,0,1.3,1.9-1,1.1,0,0,1-2.2-1.7-4.2Z"/>
      <g>
        <path class="st5" d="M412.9,83v-35.7c0,0,.1-1.5-2.5-1.7h-.5c0,0,25.8-.2,25.8-.2,0,0,12-1.5,23.9,6.8,0,0,3.9,2.8,6.3,10l-3.6,3.9s1.4-4-4.1-7.2c0,0-.5-.2-1.1.2,0,0,.5-.7,0-1.3,0,0-6.1-9.9-21-11.1,0,0-1.2-.6-7.4-.5h-10.1s.2,38.9.2,38.9v4.3s.4,1.2.4,1.2l.5,1s1.5,2.4,3.5,3.1l1.4.4h5.1s.4.4,2.6-.6c0,0,1.1.2,1.9-.9,0,0,.2-1-.6-.8h-1.2s1.1,0,1.7-1.1c0,0-.3,1,.2,1.3,0,0,1.6.8,1.5-.9,0,0,1.7-4.1-1.5-2.6,0,0-2.6.8-5,0,0,0-2.8-.9-3.7-3.4,0,0,5.1.9,4.4-.5,0,0,1.5-.4,2.8,0,0,0-.2.7,2.3.7,0,0-.1,1.5,1.5,1.9v1s.2,1.2.2,1.2l-.3,2.6v.6c0,0,4,.4,5.2-4.3,0,0,.6-2.9-1.6-1.2,0,0-.7-1.1-1.3-.6,0,0,.9-.5.7-1.3,0,0,1.2.2,1.7,0,0,0-.8.8.3.7,0,0,1,0,.6.8,0,0,.3.3.2,1.6,0,0,2.6-.2,1.2-5.2,0,0-1.3-2.4-3-2.4,0,0,1.9-2.2,4.2,2.3,0,0,.2.3.2,1.6,0,0,0,0,0,.1,0,0,.6-1.7.2-5.4,0,0,0-2.6-3.4-3.4,0,0,.8,0,.5-1.1,0,0,.6-.2.9.7,0,0,1.2.9.9,0,0,0-4.9-8.9-8.3-4.8,0,0-1.2,1.3-.7,3.2,0,0-.7.9-.3,1.8,0,0,2,2.6-2.7,2.7,0,0,3.6-1.3,0-2.5,0,0-4.5-4.8,2.8-8.1,0,0,3.4-.6,6.1,1.6,0,0,.7-4.2,5.7-4.3l.5.3s-3.4,1-3.9,4.4c0,0,1.4-3.6,5.6-3.8,0,0-4.1,7.5-4.1,7.7,0,0,1.6-6.6,7.8-6.7,0,0,3.3,0,4.1.2,0,0,1.8-1.1.6-2.6,0,0,1-.5,1.8.8,0,0,.1-2-2.8-2.9,0,0,1.2-.9,3.3-.2l.8.3s-4.7-3.7-6.8,1.3c0,0,.1-4.9,3.9-5.1,0,0,2.8.2,4.5,4.1,0,0,.8,3.1-3.7,4.7l-.8.4s2.5,0,6.2,4.5c0,0,2.3,5-1,8.5,0,0-.2.7.3,1.5l.4,1s-2.1-1.2-2.6-1.1c0,0,.3-9.7-4.3-13.6,0,0-4.9-1.8-3.4,1.2,0,0,0,.1.1.2,0,0,.1.5.1,1,0,0-5.5-5-7.3,2v4.9s.5,2.6,0,4.7v2c0,0-2.3,1.7-3.3,5,0,0-.2.3.3.3,0,0,4.7-7.8,7.7-8.6,0,0,3-.8,5.3,0,0,0,5.4,4.4,2.8,9,0,0-4.3,3.7-4.6,5.7,0,0-.2.4,0,.8l.2.4s-3.1-3.1-2.5-5.9v-.7s-.5,3.1-4.4,4.1l-.5-.3s.4-.2,1-1c0,0,1.7-.4,2.8-3.3,0,0,2.2.7,2.2-2.1,0,0,.6-2.7,3-4.2l.4-.6s-1.4-3.1-5-1c0,0,.6,1.3-.8,2.6,0,0,0-1.7-.7-2-.8-.3-6.2,7.4-6.2,7.4,0,0-1.4,2-6.2,2.8l-1.9.2s.6.7,4,.5c0,0-1.1,1.6-4.3.9,0,0-.9.2,0,1.2,0,0-.3.6-2.1-.2h-.7c0,0-.6,1.8,1.7,2.8,0,0,2.3,0,6.5-3.8,0,0,.6.2,2.3-.9,0,0,.5-.7,1.4-1.1,0,0,.8-.7,3.1-1.1,0,0,.2,0,.3,0h.8c0-.1-1.3.4-2.3,1.7l-1.7,2.8-3.5,4.1s-4.4,3.6-9.4-.6c0,0,.9,4-1.7,4.4,0,0-1.1-1.5-3.1-1.7,0,0,8-2.9,0-6.7,0,0-.2-.9-3.6-.5h-12.7s3.5-2.8,3.7-4.1c0,0,2.6.2,3.6-2.4v-3.9s-1.2-2.3-3.1-2.5h-2c0-.1,0-.3,0-.3Z"/>
        <path class="st2" d="M462.8,84.5c.4,1.5,1.6,2.7,2.9,2.8,1.8.2,3.8-1.7,3.7-4.4,0,0-.2-1.9-2.5-1.9,0,0-.5,0-.8.2-.3.3-.4.7-.2,1,.1.3.5.4.7.3.4-.1.4-.7.3-.7,0,0-.2,0-.2,0,0,0,0,0,0,0,0,0,0,0,0,0,0,0,0,.1-.1.2-.1.1-.4,0-.4,0-.1,0-.3-.1-.3-.3-.1-.3,0-.7.3-.8.4-.3,1.1-.1,1.3.2.3.5,0,1.3-.6,1.7-.6.4-1.5.3-2.1-.2-.7-.7-.5-1.8-.2-2.4.5-.9,1.8-1.4,3-1.1,0,0,7.3,3.7-.3,8.3,0,0-3,2.5-6.1-1.6l-.9-2.8s0,0,0,0c0,0,0,0,0,0,0,0,0,0,0,0,0,0,.1,0,.1,0,.1,0,.4.1.7.3h0c.3.2.5.2.5.3.3.1.6.3,1,.5Z"/>
      </g>
    </g>
  </g>
  <g id="Layer_1" class="st7">
    <g id="KPLKaS.tif">
      <image id="Layer_0" width="218" height="231" transform="translate(341.8) scale(.7 .7)" xlink:href="myart-4-1.png"/>
    </g>
  </g>
</svg>