<?xml version="1.0" encoding="UTF-8"?>
<svg id="Layer_1" xmlns="http://www.w3.org/2000/svg" xmlns:xlink="http://www.w3.org/1999/xlink" version="1.1" viewBox="0 0 500 500">
  <!-- Generator: Adobe Illustrator 29.1.0, SVG Export Plug-In . SVG Version: 2.1.0 Build 142)  -->
  <defs>
    <style>
      .st0 {
        fill: url(#radial-gradient);
        stroke: url(#radial-gradient1);
      }

      .st0, .st1, .st2, .st3, .st4, .st5, .st6 {
        stroke-miterlimit: 10;
      }

      .st1 {
        fill: url(#radial-gradient10);
        stroke: url(#radial-gradient11);
      }

      .st2 {
        fill: url(#radial-gradient12);
        stroke: url(#radial-gradient13);
      }

      .st3 {
        fill: url(#radial-gradient2);
        stroke: url(#radial-gradient3);
      }

      .st4 {
        fill: url(#radial-gradient4);
        stroke: url(#radial-gradient5);
      }

      .st5 {
        fill: url(#radial-gradient6);
        stroke: url(#radial-gradient7);
      }

      .st6 {
        fill: url(#radial-gradient8);
        stroke: url(#radial-gradient9);
      }
    </style>
    <radialGradient id="radial-gradient" cx="161.9" cy="224.8" fx="161.9" fy="224.8" r="97.2" gradientUnits="userSpaceOnUse">
      <stop offset="0" stop-color="#fff"/>
      <stop offset=".2" stop-color="#bcbbbb"/>
      <stop offset=".5" stop-color="#7b7879"/>
      <stop offset=".7" stop-color="#4b4848"/>
      <stop offset=".9" stop-color="#2e2a2b"/>
      <stop offset="1" stop-color="#231f20"/>
    </radialGradient>
    <radialGradient id="radial-gradient1" cx="161.9" cy="224.8" fx="161.9" fy="224.8" r="97.7" gradientUnits="userSpaceOnUse">
      <stop offset="0" stop-color="#fff"/>
      <stop offset="1" stop-color="#231f20"/>
    </radialGradient>
    <radialGradient id="radial-gradient2" cx="90.6" cy="286.2" fx="90.6" fy="286.2" r="26.6" gradientUnits="userSpaceOnUse">
      <stop offset="0" stop-color="#fff"/>
      <stop offset="1" stop-color="#231f20"/>
    </radialGradient>
    <radialGradient id="radial-gradient3" cx="90.6" cy="286.1" fx="90.6" fy="286.1" r="27.1" xlink:href="#radial-gradient1"/>
    <radialGradient id="radial-gradient4" cx="117.9" cy="295.3" fx="117.9" fy="295.3" r="23.2" xlink:href="#radial-gradient2"/>
    <radialGradient id="radial-gradient5" cx="117.9" cy="295.2" fx="117.9" fy="295.2" r="23.7" xlink:href="#radial-gradient1"/>
    <radialGradient id="radial-gradient6" cx="163.6" cy="215.1" fx="163.6" fy="215.1" r="33.3" gradientUnits="userSpaceOnUse">
      <stop offset="0" stop-color="#fff"/>
      <stop offset=".1" stop-color="#cccbcb"/>
      <stop offset=".3" stop-color="#999798"/>
      <stop offset=".5" stop-color="#6e6c6c"/>
      <stop offset=".6" stop-color="#4d4a4b"/>
      <stop offset=".8" stop-color="#363233"/>
      <stop offset=".9" stop-color="#272424"/>
      <stop offset="1" stop-color="#231f20"/>
    </radialGradient>
    <radialGradient id="radial-gradient7" cx="163.9" cy="215.1" fx="163.9" fy="215.1" r="34.1" xlink:href="#radial-gradient1"/>
    <radialGradient id="radial-gradient8" cx="408.8" cy="274.1" fx="408.8" fy="274.1" r="8.8" xlink:href="#radial-gradient2"/>
    <radialGradient id="radial-gradient9" cx="408.8" cy="274.3" fx="408.8" fy="274.3" r="9.1" xlink:href="#radial-gradient1"/>
    <radialGradient id="radial-gradient10" cx="327.3" cy="236.4" fx="327.3" fy="236.4" r="109.4" gradientUnits="userSpaceOnUse">
      <stop offset="0" stop-color="#fff"/>
      <stop offset="0" stop-color="#f3f3f3"/>
      <stop offset=".3" stop-color="#d5d4d5"/>
      <stop offset=".5" stop-color="#a4a3a3"/>
      <stop offset=".8" stop-color="#625f60"/>
      <stop offset="1" stop-color="#231f20"/>
    </radialGradient>
    <radialGradient id="radial-gradient11" cx="327.6" cy="236.4" fx="327.6" fy="236.4" r="109.8" xlink:href="#radial-gradient1"/>
    <radialGradient id="radial-gradient12" cx="431.7" cy="268.6" fx="431.7" fy="268.6" r="18.6" xlink:href="#radial-gradient2"/>
    <radialGradient id="radial-gradient13" cx="431.6" cy="268.6" fx="431.6" fy="268.6" r="19.1" xlink:href="#radial-gradient1"/>
  </defs>
  <g id="Sketch_S">
    <path class="st0" d="M208,131.4c1.2.7,3.1,2,4.7,4.3,2.6,3.6,2.9,7.3,3,9,.3,4.5-1.2,7.9-2.1,9.8-2.2,4.7-5.3,7.5-7.8,9.7-4,3.4-7.9,5.5-10.8,6.7,1.5-.2,17.2-2.6,23.5-16.2,1.1-2.3,5.2-11.1.8-20.2-5.1-10.4-16.9-12-17.8-12.1-4.5-1.1-9.7-2-15.4-2.6-9.5-.9-17.9-.5-24.8.3-4.8.7-12,2.5-19.7,6.8-6.2,3.5-10.7,7.4-13.6,10.6-3.4,4.7-6.9,9.6-10.4,14.7-5.8,8.6-11,17.1-15.7,25.2,0,0-6.4,6.4-11.7-.4,0,0-6.4-5.7-7.2-10.2,0,0-15.5,13.6-6.1,19.7,0,0,3,5.3,7.9,3h7.2c0-.4-3.4,0-6.8,7.2,0,0-7.6,9.1-.8,21.6,6.8,12.5,21.9,12.1,35.6,29.5-5.3-8.4-29.7-47.5-20.3-56.5.6-.6,1.4-1.1,2.4-1.4.4.2.9.4,1.3.7,1.5.7,3,1.4,4.4,2.1,0,0-5.7,2.6-4.2,7.6h6.4s-3.4,11.3,1.5,13.6l2.3,4.5,2.3-6.1s2.6,26.5,27.6,32.5c0,0,7.2-1.9,9.5,10.2l-8.7,1.1,3,1.9,1.5,1.5h6.4l3,1.1v7.9c-.4,0-.8,2.3-5.3,6.4,0,0-26.5-17.8-46.1-16.6l-1.1,1.9-5.3.8s0,2.6-4.9,5.7c0,0,7.2.8,12.5,5.3,0,0,4.2,1.9,13.6,12.5,0,0,15.9,10.6,31.4-1.5,0,0,7.9-5.7,11.3-14,0,0,3-9.8-11-24.2,0,0-15.1-4.9-23.5-12.5,0,0-1.5-2.3-1.5-5.3,0,0,1.9,4.9,10.6,8.3,0,0,6.4,3.8,16.3,6.1l6.1,1.1h30.3l3,.4s4.5.8,8.7,4.9c0,0,4.5,2.6,6.1,6.1,0,0-.4,4.9-8.7,13.6,0,0,10.6-.8,11.3,4.5,0,0-1.9,16.3-31,16.3,0,0-10.2,3-32.2,3.4,0,0-15.1,3-18.5,19.7,0,0,1.9,16.3,18.9,19.3,0,0,17-3.4,15.1-18.9,0,0-6.1-9.1-14-1.9,0,0-.8,2.3-.4,6.1v1.5c0,.8-1.1.8-2.3-.8,0,0,0-1.1-6.1-3,0,0-1.9-1.1-5.3-1.9,0,0,1.1,4.2,4.2,7.6,0,0,1.9,4.9,7.9,3.4,0,0,1.5,0,2.6-4.5v-.8s2.3.8,6.1-3h1.9c0-.4-5.3,12.5-9.5,11,0,0-11,0-14.8-11,0,0-3.4-7.9,6.1-14.8,0,0,4.2-4.5,9.5-3,0,0,0,3.4-2.3,7.2,0,0,3.8-4.2,10.2-2.6,0,0,2.3,1.9,5.7,3.8,3.4,1.5,24.2,6.1,39-5.3,0,0,4.5-3.8,7.6-8.3l1.5-4.9s5.7,16.3,20,14.8c1.5,0,3.8-.8,6.4-2.3,5.3-2.6,12.5-9.5,11-16.3-.8-4.5-4.9-6.8-6.8-8.3-4.9-3-9.8-3.4-11.7-3h-1.1c0-.4,16.3,7.9,7.9,23.8l-1.9,2.3s1.9-9.8-2.3-18.9c0,0,1.5,11.7-10.2,12.5,0,0,2.3,0,4.2-2.3v-4.5s-6.4,5.7-11-1.9c2.3.7,3.9.4,4.8,0,6.2-2.4,7.4-14.9,5.8-23.5-.3-1.4-.6-2.6-.8-3.4-.5,2.9-.8,5.2-1,6.6-1.1,7.5-1.4,10.6-3.9,13.1-.7.7-1.4,1.2-1.9,1.5-.8-1.5-2.6-5.7-1.9-11,0-3,1.5-5.7,2.3-6.8,0,0-7.9-10.6-17.4-17.8,0,0,8.7,1.1,21.6,14,0,0-2.6-10.6-15.5-22.7,0,0,9.5.8,18.9,15.5,0,0,3-14.8-16.3-23.8,0,0,17.4-20.8,0-34.4-3.7-.9-8-1.6-12.7-2.1-4.6-.5-8.8-.6-12.6-.5,2,4.2-.2,8.7-3.4,9.6-2.5.7-5.6-.7-7.2-3.6,0,0-3.4,8.3,12.9,12.5.5-.7,1.6-2,3.3-2.9,3-1.6,6-.9,6.8-.7-.4.3-1.9,1.6-2.3,4,0,.5-.4,2.7.7,3.9,2.5,2.9,10.9-.5,10.9-.5,0,0-1.4.6-3.3.5-2.4-.2-5.5-1.7-5.7-3.7,0-1,.6-2.2,1.6-2.8.2,0,.8-.4,1.6-.2.9.2,1.4,1,1.9,1.4.7.7,2,1.2,4.7.8,1,1.4,1.5,2.7,1.7,3.8,2,8.1-6,15.4-6.7,16,0,0-4.9,9.8-13.6,9.1,0,0-2.3-14-11.7,0,0,0-3.4,6.1-16.3,4.9,0,0-3.4,0-5.7-3.4,0,0,16.3-1.1,11-14.4,0,0-1.9,9.5-16.6,11,0,0-11.3,2.6-13.6-5.7,0,0,6.4,2.3,13.6-6.8,0,0,0-4.2-5.3-6.4,0,0,.8,14-11,10.2-1.7-.7-3.6-1.8-5.4-3.2-8.4-6.9-8.6-18.2-8.6-20.9.7.8,6.4,7.7,15.8,7.5,7.6-.2,12.4-4.9,13.4-6,.7-.9,1.7-2.2,2.5-4,.7-1.8.9-3.3,1.1-4.9.2-2.4.4-5.9.1-10.4v-17.4c-.4,0-11.3,5.3-15.5,22.7,0,0-1.1,9.8,1.9,13.2,0,0,3.4,2.6-5.7,3,0,0-7.9,0-10.2-3.4,0,0,1.5-1.5,3-5.3,0,0-2.3.8-6.1,0,0,0-2.6-4.5,0-5.3,0,0,1.9-2.6,4.9-3.8,0,0-3.4-1.5-2.6-5.7,0,0-4.9-4.9,0-19.3.4-2.3,1-5.1,2.4-8,3.6-8.1,9.9-12.4,13-14.3.1,0,.4-.2.8-.5,6.7-3.9,12.3-7.1,19.5-9.2,1.5-.5,4.9-1.4,9.4-2.1,3.1-.4,5.6-.6,7.4-.6,2.9-.1,5.1-.2,8.1,0,.7,0,2.6.3,6.4.9,1.5.2,4,.6,4.7.7,2.5.4,6.7,1.4,13.5,4.2Z"/>
    <path class="st3" d="M99.3,268.1c1.5,17.8,3,35.6,4.5,53.3h-13.6c3.4-2.6,5.3-5.7,6.4-7.9,6.4-13.2-.8-32.2-16.6-48.4-2.6-11-3-13.6-2.3-14,.1.6,1.5,6.6,7.2,9.1,4.8,2.1,10.6.9,14.5-3.2.2.5.4,1.3.3,2.3,0,.3-.1,1.2-.5,2.1,0,.2-.8,1.6-2.2,2.7-.6.4-.8.4-1.3.9-.4.4-.7.7-1.2,1,0,0-.3.2-.9.2-.5,0-1.2.1-2.2,0h0c.6.4,1.5.9,2.7,1.2.8.2,1.4.3,2,.3.5,0,1,.1,1.6.2.6.1,1.1.3,1.5.4h0c0,.1,0,0,0-.3Z"/>
    <path class="st4" d="M99.3,268.4c.6,7,1.7,19.4,2.2,26.4.6,7.1,1.7,19.6,2.2,26.6,9.8-2.3,17.4-1.5,22.3-.4,2.6.8,7.2,1.9,7.6.8.4-.8-1.5-2.6-3.4-3.8-.4-.4-1.1-1.1-1.5-1.9-1.5-2.6-1.5-5.7-1.1-6.4.8-7.6,10.2-13.6,8.7-18.2-1.1-3.4-8.3-.8-16.3-6.1-5-3.3-4.8-6.4-11-11.3-3.8-3-7.4-4.7-9.8-5.7Z"/>
    <path class="st5" d="M143.6,206.9c2.3-.8,5.1-1.9,7.1-4.5,1.7-2.2,2.8-5.6,2.9-5.9.3-.8.4-1.4.4-1.4.4-1.8.2-2.5.4-2.6.7-.2,2.6,7.3,7.7,12.3,3.1,3.2,6.5,4.3,10.1,5.5,6.3,2.2,14.9,5.4,26.6,10.4l1.9.8c1.4,0,2.8-.2,4.3-.3-1.6,1.8-3,3.4-4,4.7-2,2.4-2.5,3.3-3.8,4.3-1.3,1-3.1,1.9-5.7,2.2-.1-.6-.3-1.6-.9-2.7-.5-1-1.2-2.5-2.6-3.2-2.5-1.3-5.6.7-5.8.9-1.2,1.2-2.4,2.4-3.6,3.6-1.8,1.7-3.6,3.4-5.3,4.9-2.8.9-5.1,1.3-6.8,1.4-2.4.2-3.7,0-4.9-.3-.8-.2-1.5-.5-1.9-.8,2.3-.4,4-1.2,5-1.8.7-.4,1.7-1,2.7-2.1.7-.8,1.2-1.5,1.5-2.1.6-1.2.8-2.2.8-2.9.2-1.6-.1-2.9-.4-4.3-.2-1.1-.5-1.9-.8-2.7-.4-1.1-.8-2.1-1.1-2.8-.2.3-.5.7-.8,1.3-.4.8-.4,1.3-.6,2-.3.9-.6,1.5-1.1,2.3-.2.3-1.1,1.7-2.5,3-2,1.9-4.2,2.5-7.6,3.6-2,.6-3.8,1-4.8,1.1-1.2.2-2.3.3-3.1.3-.9,0-3.2,0-5.3-1.5-.8-.6-1.4-1.3-1.8-1.8,1.6-.2,4.1-.6,6.6-2.2.9-.5,1.6-1.1,2.2-1.7.5-.3.9-.6,1.2-.8.6-.5,1-1,1.4-1.4.1-.1.2-.2.4-.5.5-.6.7-.9.8-1,.2-.4,0-.7-.3-1.9-.1-.6-.2-1-.3-1.3-.1-.4-.2-.9-.4-1.3-.1-.2-.3-.4-.5-.6-.2-.2-.4-.5-.6-.6-.4-.3-.8-.7-1.3-1-1-.6-1.9-1-2.6-1.3-.3,0-.6-.2-1.1-.4-.6-.3-.7-.6-.9-.6-.2,0-.2.7-.2,1.8,0,.7,0,1.4,0,2,0,.9-.2,2.4-1.2,4.7-.2.4-.9,1.8-2.5,2.6-2.2,1-4.2,0-4.5-.1-1.7-.8-3.7-1.9-5.7-3.7-6.2-5.4-7.6-12.7-7.9-15.4.9.9,2.3,2.2,4.4,3.2,7.4,3.9,15.2,1.1,17,.4Z"/>
  </g>
  <g id="Sketch_D">
    <g>
      <path class="st6" d="M403,268.8s4.2.8,5.3-5.7c0,0-1.5,10.6,4.9,17,0,0,4.9,7.2-3.8,4.2,0,0,3.8-8.3-6.4-15.9v.4Z"/>
      <g>
        <path class="st1" d="M232.8,266.2v-135s.4-5.7-9.5-6.4h-1.9l97.6-.8s45.4-5.7,90.4,25.7c0,0,14.8,10.6,23.8,37.8l-13.6,14.8s5.3-15.1-15.5-27.2c0,0-1.9-.8-4.2.8,0,0,1.9-2.6,0-4.9,0,0-23.1-37.4-79.4-42,0,0-4.5-2.3-28-1.9h-38.2l.8,147.1v16.3l1.5,4.5,1.9,3.8s5.7,9.1,13.2,11.7l5.3,1.5h19.3s1.5,1.5,9.8-2.3c0,0,4.2.8,7.2-3.4,0,0,.8-3.8-2.3-3h-4.5s4.2,0,6.4-4.2c0,0-1.1,3.8.8,4.9,0,0,6.1,3,5.7-3.4,0,0,6.4-15.5-5.7-9.8,0,0-9.8,3-18.9,0,0,0-10.6-3.4-14-12.9,0,0,19.3,3.4,16.6-1.9,0,0,5.7-1.5,10.6,0,0,0-.8,2.6,8.7,2.6,0,0-.4,5.7,5.7,7.2v3.8l.8,4.5-1.1,9.8v2.3s15.1,1.5,19.7-16.3c0,0,2.3-11-6.1-4.5,0,0-2.6-4.2-4.9-2.3,0,0,3.4-1.9,2.6-4.9,0,0,4.5.8,6.4,0,0,0-3,3,1.1,2.6,0,0,3.8,0,2.3,3,0,0,1.1,1.1.8,6.1,0,0,9.8-.8,4.5-19.7,0,0-4.9-9.1-11.3-9.1,0,0,7.2-8.3,15.9,8.7,0,0,.8,1.1.8,6.1v.4s2.3-6.4.8-20.4c0,0,0-9.8-12.9-12.9,0,0,3,0,1.9-4.2,0,0,2.3-.8,3.4,2.6,0,0,4.5,3.4,3.4,0,0,0-18.5-33.7-31.4-18.2,0,0-4.5,4.9-2.6,12.1,0,0-2.6,3.4-1.1,6.8,0,0,7.6,9.8-10.2,10.2,0,0,13.6-4.9,0-9.5,0,0-17-18.2,10.6-30.6,0,0,12.9-2.3,23.1,6.1,0,0,2.6-15.9,21.6-16.3l1.9,1.1s-12.9,3.8-14.8,16.6c0,0,5.3-13.6,21.2-14.4,0,0-15.5,28.4-15.5,29.1,0,0,6.1-25,29.5-25.3,0,0,12.5,0,15.5.8,0,0,6.8-4.2,2.3-9.8,0,0,3.8-1.9,6.8,3,0,0,.4-7.6-10.6-11,0,0,4.5-3.4,12.5-.8l3,1.1s-17.8-14-25.7,4.9c0,0,.4-18.5,14.8-19.3,0,0,10.6.8,17,15.5,0,0,3,11.7-14,17.8l-3,1.5s9.5,0,23.5,17c0,0,8.7,18.9-3.8,32.2,0,0-.8,2.6,1.1,5.7l1.5,3.8s-7.9-4.5-9.8-4.2c0,0,1.1-36.7-16.3-51.4,0,0-18.5-6.8-12.9,4.5,0,0,0,.4.4.8,0,0,.4,1.9.4,3.8,0,0-20.8-18.9-27.6,7.6v18.5s1.9,9.8,0,17.8v7.6s-8.7,6.4-12.5,18.9c0,0-.8,1.1,1.1,1.1,0,0,17.8-29.5,29.1-32.5,0,0,11.3-3,20,0,0,0,20.4,16.6,10.6,34,0,0-16.3,14-17.4,21.6,0,0-.8,1.5,0,3l.8,1.5s-11.7-11.7-9.5-22.3v-2.6s-1.9,11.7-16.6,15.5l-1.9-1.1s1.5-.8,3.8-3.8c0,0,6.4-1.5,10.6-12.5,0,0,8.3,2.6,8.3-7.9,0,0,2.3-10.2,11.3-15.9l1.5-2.3s-5.3-11.7-18.9-3.8c0,0,2.3,4.9-3,9.8,0,0,0-6.4-2.6-7.6-3-1.1-23.5,28-23.5,28,0,0-5.3,7.6-23.5,10.6l-7.2.8s2.3,2.6,15.1,1.9c0,0-4.2,6.1-16.3,3.4,0,0-3.4.8,0,4.5,0,0-1.1,2.3-7.9-.8h-2.6s-2.3,6.8,6.4,10.6c0,0,8.7,0,24.6-14.4,0,0,2.3.8,8.7-3.4,0,0,1.9-2.6,5.3-4.2,0,0,3-2.6,11.7-4.2h4.2c0-.4-4.9,1.5-8.7,6.4l-6.4,10.6-13.2,15.5s-16.6,13.6-35.6-2.3c0,0,3.4,15.1-6.4,16.6,0,0-4.2-5.7-11.7-6.4,0,0,30.3-11,0-25.3,0,0-.8-3.4-13.6-1.9h-48s13.2-10.6,14-15.5c0,0,9.8.8,13.6-9.1v-14.8s-4.5-8.7-11.7-9.5h-7.6v-1.1h.8l-.3.6Z"/>
        <path class="st2" d="M421.6,271.9c1.5,5.7,6.1,10.2,11,10.6,6.8.8,14.4-6.4,14-16.6,0,0-.8-7.2-9.5-7.2,0,0-1.9,0-3,.8-1.1,1.1-1.5,2.6-.8,3.8.4,1.1,1.9,1.5,2.6,1.1,1.5-.4,1.5-2.6,1.1-2.6h-.8s0,.4-.4.8-1.5,0-1.5,0c-.4,0-1.1-.4-1.1-1.1-.4-1.1,0-2.6,1.1-3,1.5-1.1,4.2-.4,4.9.8,1.1,1.9,0,4.9-2.3,6.4s-5.7,1.1-7.9-.8c-2.6-2.6-1.9-6.8-.8-9.1,1.9-3.4,6.8-5.3,11.3-4.2,0,0,27.6,14-1.1,31.4,0,0-11.3,9.5-23.1-6.1l-3.4-10.6h.4c.4,0,1.5.4,2.6,1.1h0c1.1.8,1.9.8,1.9,1.1,1.1.4,2.3,1.1,3.8,1.9l.8,1.5h.2Z"/>
      </g>
    </g>
  </g>
</svg>